<svg xmlns="http://www.w3.org/2000/svg" width="512" height="512" viewBox="0 0 512 512" style="overflow: visible;" data-svgdocument="" id="_TJw0cLhPVHygA8ZfXW3DG" class="fl-svgdocument" x="0" y="0" overflow="hidden"><g data-uid="o_f59g1f7el_12"><path id="_jTzMhynFpZkUA6_3WTfSs" fill="#4c96d7" transform="matrix(0.47035134717806143, 0, 0, 0.47035134717806143, 22.275648490673404, 214.42799517488817)" data-type="circle" data-cx="88.385" data-cy="88.385" data-r="88.385" d="M88.385,88.385m-88.385,0a88.385,88.385 0 1, 0 176.77,0a88.385,88.385 0 1, 0 -176.77,0" data-uid="o_f59g1f7el_4"></path><g id="_jhaW9B42JSQTn8U6lxBFr" transform="matrix(0.40510207614407634, 0, 0, 0.40510207614407634, 12.74082164321726, 143.78881745995085)" data-uid="o_f59g1f7el_5"><path id="_ocjcXlldL70pU8we1Wyrw" fill="#ffffff" d="M33.756 21.234c0 0.008-2.242 0.022-2.242 0.022c-4.856 0-8.792 3.936-8.792 8.792v54.161    c0 4.855 3.936 8.791 8.792 8.791h37.455c4.854 0 8.793-3.936 8.793-8.791V30.047c0-4.856-3.938-8.792-8.793-8.792    c0 0-2.245-0.013-2.245-0.021H33.756z M68.969 30.047v54.162H31.512V30.047H68.969z" transform="matrix(1.7716387510299683, 0, 0, 1.7716387510299683, 37.14724349975586, 189.52452087402344)" data-uid="o_f59g1f7el_6"></path><path id="_aSCAJ4Gb2sQWyobrOsjJ8" fill="#ffffff" d="M68 14.337c0-4.653-2.66-8.425-7.309-8.425c0 0-2.096-0.014-2.096-0.02L43.088 6    c0 0.006-2.584 0.021-2.584 0.021C36.001 6.021 32 9.555 32 14v5h36V14.337z" transform="matrix(1.7716387510299683, 0, 0, 1.7716387510299683, 37.00775146484375, 189.2642822265625)" data-uid="o_f59g1f7el_7"></path><path id="_wAcFb5Iwbv3b358mI8L3x" d="M84.385 0.139c0 0 7.216 17.238-14.382 53.421c-17.426 29.192-18.639 58.697 3.698 78.898  c1.574 1.424 3.225 2.605 4.922 3.58c1.028 0.549 2.12 0.998 3.211 1.226c0 0-7.284 16.83-16.376 24.38  c-0.191 0.297-0.294 0.453-0.294 0.453s-7.554 30.633 9.402 2.949c0.595-0.971 1.168-1.947 1.731-2.924  c0.163-0.283 0.321-0.566 0.481-0.85c0.466-0.824 0.925-1.648 1.368-2.477c0.141-0.262 0.276-0.524 0.415-0.787  c0.398-0.754 0.789-1.51 1.169-2.266c0.16-0.316 0.316-0.633 0.473-0.949c0.369-0.75 0.73-1.5 1.083-2.25  c0.133-0.283 0.267-0.565 0.397-0.848c0.373-0.807 0.734-1.613 1.088-2.42c0.12-0.273 0.242-0.548 0.36-0.821  c0.356-0.825 0.701-1.651 1.038-2.476c0.117-0.285 0.235-0.572 0.35-0.858c0.327-0.813 0.645-1.626 0.954-2.437  c0.111-0.293 0.223-0.586 0.332-0.879c0.3-0.803 0.593-1.604 0.876-2.401c10.097-28.437 9.512-53.575 9.512-53.575  c0 0.004 0 0.008-0.001 0.013c0.145-3.411 0.118-6.859-0.118-10.318c0 0 8.102 30.597-4.262 63.721  C118.147 137.541 141.861 88.845 84.385 0.139z" fill="#ffffff" transform="matrix(-0.4573019742965698, -0.3446141183376312, -0.3446141183376312, 0.4573019742965698, 197.7712860107422, 280.0281677246094)" data-uid="o_f59g1f7el_8"></path></g><path id="_fIcN68sL0tITwNsubq_pg" fill="#7e7e7e" transform="matrix(0.35985602582342074, 0, 0, 0.35985602582342074, 117.70517444197918, 250.67762620423628)" text="Metronet Chiropractic" text-anchor="start" font-size="100" letter-spacing="0" side="left" offset="0" dx="0" dy="0" space="preserve" href="" font-family="Ubuntu" font-scale="contain" x="0" y="0" data-fl-textpath="" font-weight="700" font-style="italic" data-uid="o_f59g1f7el_9" d="M 27.6-69.3L 41.6-69.3Q 42.2-66.6  43.15-61.65Q 44.1-56.7  45.15-50.75Q 46.2-44.8  47.3-38.55Q 48.4-32.3  49.3-27.1L 49.3-27.1Q 52.7-32.3  56.7-38.3Q 60.7-44.3  64.6-50.1Q 68.5-55.9  72-60.95Q 75.5-66  78-69.3L 78-69.3L 91.8-69.3Q 91.1-62.4  89.95-53.8Q 88.8-45.2  87.35-36Q 85.9-26.8  84.3-17.5Q 82.7-8.2  81.1 0L 81.1 0L 65.9 0Q 68-10.2  70.35-22.05Q 72.7-33.9  74.7-46L 74.7-46Q 72.1-41.9  68.9-36.85Q 65.7-31.8  62.5-26.65Q 59.3-21.5  56.3-16.8Q 53.3-12.1  51.1-8.8L 51.1-8.8L 39.7-8.8Q 39.2-11.8  38.5-16.4Q 37.8-21  36.95-26.15Q 36.1-31.3  35.2-36.55Q 34.3-41.8  33.5-46L 33.5-46Q 29.6-33.9  26.45-22.05Q 23.3-10.2  20.6 0L 20.6 0L 5.5 0Q 7.8-8.2  10.55-17.5Q 13.3-26.8  16.25-36.05Q 19.2-45.3  22.1-53.9Q 25-62.5  27.6-69.3L 27.6-69.3ZM 97.80000000000001-20.6L 97.80000000000001-20.6Q 97.80000000000001-27  100.05000000000001-33Q 102.30000000000001-39  106.4-43.65Q 110.50000000000001-48.3  116.35000000000001-51.15Q 122.20000000000002-54  129.3-54L 129.3-54Q 132.8-54  135.8-53Q 138.8-52  141.05-50.1Q 143.3-48.2  144.55-45.45Q 145.8-42.7  145.8-39.2L 145.8-39.2Q 145.8-33.6  143.3-29.7Q 140.8-25.8  136.35000000000002-23.35Q 131.9-20.9  125.80000000000001-19.8Q 119.70000000000002-18.7  112.50000000000001-18.7L 112.50000000000001-18.7Q 113.20000000000002-14.5  115.55000000000001-12.75Q 117.9-11  123.00000000000001-11L 123.00000000000001-11Q 126.20000000000002-11  129.5-11.55Q 132.8-12.1  135.70000000000002-13.2L 135.70000000000002-13.2L 136.8-1.5Q 134-0.4  129.65 0.5Q 125.30000000000001 1.4  120.20000000000002 1.4L 120.20000000000002 1.4Q 114.00000000000001 1.4  109.75000000000001-0.35Q 105.50000000000001-2.1  102.85000000000001-5.1Q 100.20000000000002-8.1  99.00000000000001-12.1Q 97.80000000000001-16.1  97.80000000000001-20.6ZM 126.9-42.2L 126.9-42.2Q 121.80000000000001-42.2  117.95000000000002-38.55Q 114.10000000000001-34.9  112.9-28.9L 112.9-28.9Q 119.10000000000001-29.1  122.9-29.95Q 126.70000000000002-30.8  128.8-32Q 130.9-33.2  131.60000000000002-34.6Q 132.3-36  132.3-37.4L 132.3-37.4Q 132.3-42.2  126.9-42.2ZM 152.3-24.3L 162.10000000000002-65.7L 177.60000000000002-68.1L 173.8-52.6L 190.4-52.6L 187.4-40.4L 170.9-40.4L 166.5-22Q 165.9-19.7  165.75-17.7Q 165.60000000000002-15.7  166.25-14.25Q 166.9-12.8  168.5-12Q 170.10000000000002-11.2  172.9-11.2L 172.9-11.2Q 175.3-11.2  177.55-11.65Q 179.8-12.1  182.10000000000002-12.9L 182.10000000000002-12.9L 183.20000000000002-1.5Q 180.20000000000002-0.4  176.70000000000002 0.4Q 173.20000000000002 1.2  168.4 1.2L 168.4 1.2Q 161.5 1.2  157.70000000000002-0.85Q 153.9-2.9  152.3-6.45Q 150.70000000000002-10  150.9-14.6Q 151.10000000000002-19.2  152.3-24.3L 152.3-24.3ZM 234-51.8L 229.60000000000002-39.8Q 227.60000000000002-40.3  225.65-40.75Q 223.7-41.2  219.9-41.2L 219.9-41.2Q 218.5-41.2  216.8-40.95Q 215.10000000000002-40.7  214-40.4L 214-40.4L 204.3 0L 189.4 0L 201.4-49.8Q 205.70000000000002-51.2  211.05-52.45Q 216.4-53.7  223.10000000000002-53.7L 223.10000000000002-53.7Q 225.60000000000002-53.7  228.65-53.25Q 231.7-52.8  234-51.8L 234-51.8ZM 253.8 1.4L 253.8 1.4Q 248.5 1.4  244.6-0.2Q 240.7-1.8  238.15-4.7Q 235.6-7.6  234.3-11.55Q 233-15.5  233-20.3L 233-20.3Q 233-26.3  234.95-32.3Q 236.9-38.3  240.7-43.1Q 244.5-47.9  250-50.95Q 255.5-54  262.6-54L 262.6-54Q 267.8-54  271.75-52.4Q 275.7-50.8  278.25-47.9Q 280.8-45  282.1-41.05Q 283.4-37.1  283.4-32.3L 283.4-32.3Q 283.4-26.3  281.5-20.3Q 279.6-14.3  275.9-9.5Q 272.2-4.7  266.65-1.65Q 261.1 1.4  253.8 1.4ZM 261.2-41.4L 261.2-41.4Q 257.9-41.4  255.4-39.5Q 252.9-37.6  251.2-34.7Q 249.5-31.8  248.65-28.35Q 247.8-24.9  247.8-21.8L 247.8-21.8Q 247.8-16.7  249.4-13.95Q 251-11.2  255.2-11.2L 255.2-11.2Q 258.5-11.2  261-13.1Q 263.5-15  265.2-17.9Q 266.9-20.8  267.75-24.25Q 268.6-27.7  268.6-30.8L 268.6-30.8Q 268.6-35.9  267-38.65Q 265.4-41.4  261.2-41.4ZM 287.4 0L 299.5-50.2Q 301.2-50.7  303.25-51.35Q 305.29999999999995-52  307.84999999999997-52.55Q 310.4-53.1  313.54999999999995-53.45Q 316.7-53.8  320.7-53.8L 320.7-53.8Q 332.5-53.8  336.9-47Q 341.29999999999995-40.2  338.4-28.4L 338.4-28.4L 331.59999999999997 0L 316.7 0L 323.29999999999995-27.8Q 323.9-30.4  324.25-32.85Q 324.59999999999997-35.3  324.2-37.15Q 323.79999999999995-39  322.34999999999997-40.15Q 320.9-41.3  317.9-41.3L 317.9-41.3Q 315-41.3  312-40.7L 312-40.7L 302.29999999999995 0L 287.4 0ZM 347.09999999999997-20.6L 347.09999999999997-20.6Q 347.09999999999997-27  349.34999999999997-33Q 351.59999999999997-39  355.7-43.65Q 359.79999999999995-48.3  365.65-51.15Q 371.49999999999994-54  378.59999999999997-54L 378.59999999999997-54Q 382.09999999999997-54  385.09999999999997-53Q 388.09999999999997-52  390.34999999999997-50.1Q 392.59999999999997-48.2  393.84999999999997-45.45Q 395.09999999999997-42.7  395.09999999999997-39.2L 395.09999999999997-39.2Q 395.09999999999997-33.6  392.59999999999997-29.7Q 390.09999999999997-25.8  385.65-23.35Q 381.2-20.9  375.09999999999997-19.8Q 368.99999999999994-18.7  361.79999999999995-18.7L 361.79999999999995-18.7Q 362.49999999999994-14.5  364.84999999999997-12.75Q 367.2-11  372.29999999999995-11L 372.29999999999995-11Q 375.49999999999994-11  378.79999999999995-11.55Q 382.09999999999997-12.1  384.99999999999994-13.2L 384.99999999999994-13.2L 386.09999999999997-1.5Q 383.29999999999995-0.4  378.95 0.5Q 374.59999999999997 1.4  369.49999999999994 1.4L 369.49999999999994 1.4Q 363.29999999999995 1.4  359.04999999999995-0.35Q 354.79999999999995-2.1  352.15-5.1Q 349.49999999999994-8.1  348.29999999999995-12.1Q 347.09999999999997-16.1  347.09999999999997-20.6ZM 376.2-42.2L 376.2-42.2Q 371.09999999999997-42.2  367.24999999999994-38.55Q 363.4-34.9  362.2-28.9L 362.2-28.9Q 368.4-29.1  372.2-29.95Q 375.99999999999994-30.8  378.09999999999997-32Q 380.2-33.2  380.9-34.6Q 381.59999999999997-36  381.59999999999997-37.4L 381.59999999999997-37.4Q 381.59999999999997-42.2  376.2-42.2ZM 401.59999999999997-24.3L 411.4-65.7L 426.9-68.1L 423.09999999999997-52.6L 439.7-52.6L 436.7-40.4L 420.2-40.4L 415.79999999999995-22Q 415.2-19.7  415.04999999999995-17.7Q 414.9-15.7  415.54999999999995-14.25Q 416.2-12.8  417.79999999999995-12Q 419.4-11.2  422.2-11.2L 422.2-11.2Q 424.59999999999997-11.2  426.84999999999997-11.65Q 429.09999999999997-12.1  431.4-12.9L 431.4-12.9L 432.49999999999994-1.5Q 429.49999999999994-0.4  425.99999999999994 0.4Q 422.49999999999994 1.2  417.7 1.2L 417.7 1.2Q 410.79999999999995 1.2  406.99999999999994-0.85Q 403.2-2.9  401.59999999999997-6.45Q 399.99999999999994-10  400.2-14.6Q 400.4-19.2  401.59999999999997-24.3L 401.59999999999997-24.3ZM 515.4-15.7L 517.1-3Q 513-1  508 0.2Q 503 1.4  495.8 1.4L 495.8 1.4Q 489.59999999999997 1.4  484.45-0.65Q 479.3-2.7  475.65-6.5Q 472-10.3  470-15.75Q 468-21.2  468-28L 468-28Q 468-35.8  470.75-43.5Q 473.5-51.2  478.84999999999997-57.25Q 484.2-63.3  491.95-67.1Q 499.7-70.9  509.8-70.9L 509.8-70.9Q 514.6-70.9  519.25-69.8Q 523.9-68.7  529-65.9L 529-65.9L 523.4-53.8Q 519.2-56  515.9-56.8Q 512.6-57.6  508.8-57.6L 508.8-57.6Q 503.09999999999997-57.6  498.55-55.3Q 494-53  490.75-49.05Q 487.5-45.1  485.8-39.9Q 484.09999999999997-34.7  484.09999999999997-28.9L 484.09999999999997-28.9Q 484.09999999999997-20.1  487.95-16.1Q 491.8-12.1  499-12.1L 499-12.1Q 503.8-12.1  507.84999999999997-13.1Q 511.9-14.1  515.4-15.7L 515.4-15.7ZM 562-53.5L 562-53.5Q 566.3-53.5  569.4-52.25Q 572.5-51  574.5-48.75Q 576.5-46.5  577.5-43.4Q 578.5-40.3  578.5-36.7L 578.5-36.7Q 578.5-32.5  577.5-28.4L 577.5-28.4L 570.7 0L 555.8 0L 562.4-27.8Q 562.8-29.5  563.15-31.4Q 563.5-33.3  563.5-35L 563.5-35Q 563.5-37.6  562.15-39.45Q 560.8-41.3  557-41.3L 557-41.3Q 555.4-41.3  553.95-41.1Q 552.5-40.9  551.1-40.6L 551.1-40.6L 541.4 0L 526.5 0L 544.5-75.2L 560-77.6L 553.9-52.5Q 555.9-52.9  557.95-53.2Q 560-53.5  562-53.5ZM 610.4-52.6L 597.8 0L 583 0L 595.5-52.6L 610.4-52.6ZM 605-59L 605-59Q 601.9-59  599.4-60.85Q 596.9-62.7  596.9-66.5L 596.9-66.5Q 596.9-68.6  597.75-70.45Q 598.6-72.3  600-73.65Q 601.4-75  603.25-75.8Q 605.1-76.6  607.2-76.6L 607.2-76.6Q 610.3-76.6  612.8-74.75Q 615.3-72.9  615.3-69.1L 615.3-69.1Q 615.3-67  614.45-65.15Q 613.6-63.3  612.2-61.95Q 610.8-60.6  608.95-59.8Q 607.1-59  605-59ZM 655.9-51.8L 651.5-39.8Q 649.5-40.3  647.55-40.75Q 645.5999999999999-41.2  641.8-41.2L 641.8-41.2Q 640.4-41.2  638.6999999999999-40.95Q 637-40.7  635.9-40.4L 635.9-40.4L 626.1999999999999 0L 611.3 0L 623.3-49.8Q 627.5999999999999-51.2  632.9499999999999-52.45Q 638.3-53.7  645-53.7L 645-53.7Q 647.5-53.7  650.55-53.25Q 653.5999999999999-52.8  655.9-51.8L 655.9-51.8ZM 675.6999999999999 1.4L 675.6999999999999 1.4Q 670.4 1.4  666.5-0.2Q 662.6-1.8  660.05-4.7Q 657.5-7.6  656.1999999999999-11.55Q 654.9-15.5  654.9-20.3L 654.9-20.3Q 654.9-26.3  656.85-32.3Q 658.8-38.3  662.6-43.1Q 666.4-47.9  671.9-50.95Q 677.4-54  684.5-54L 684.5-54Q 689.6999999999999-54  693.65-52.4Q 697.6-50.8  700.15-47.9Q 702.6999999999999-45  704-41.05Q 705.3-37.1  705.3-32.3L 705.3-32.3Q 705.3-26.3  703.4-20.3Q 701.5-14.3  697.8-9.5Q 694.1-4.7  688.55-1.65Q 683 1.4  675.6999999999999 1.4ZM 683.1-41.4L 683.1-41.4Q 679.8-41.4  677.3-39.5Q 674.8-37.6  673.1-34.7Q 671.4-31.8  670.55-28.35Q 669.6999999999999-24.9  669.6999999999999-21.8L 669.6999999999999-21.8Q 669.6999999999999-16.7  671.3-13.95Q 672.9-11.2  677.1-11.2L 677.1-11.2Q 680.4-11.2  682.9-13.1Q 685.4-15  687.1-17.9Q 688.8-20.8  689.65-24.25Q 690.5-27.7  690.5-30.8L 690.5-30.8Q 690.5-35.9  688.9-38.65Q 687.3-41.4  683.1-41.4ZM 733.8-40.7L 726.8-11.6Q 728.5-11.2  731-11.2L 731-11.2Q 734.9-11.2  738.0999999999999-12.65Q 741.3-14.1  743.55-16.7Q 745.8-19.3  747.05-22.95Q 748.3-26.6  748.3-31L 748.3-31Q 748.3-35.3  746.4-38.3Q 744.5-41.3  739.8-41.3L 739.8-41.3Q 736.5999999999999-41.3  733.8-40.7L 733.8-40.7ZM 763.0999999999999-32.1L 763.0999999999999-32.1Q 763.0999999999999-24.8  760.6999999999999-18.75Q 758.3-12.7  754.05-8.3Q 749.8-3.9  743.8499999999999-1.45Q 737.9 1  730.9 1L 730.9 1Q 727.5 1  724.0999999999999 0.4L 724.0999999999999 0.4L 719.5999999999999 18.5L 704.8 18.5L 721.4-50.7Q 725.4-51.9  730.55-52.85Q 735.6999999999999-53.8  741.6999999999999-53.8L 741.6999999999999-53.8Q 747.3-53.8  751.3499999999999-52.1Q 755.4-50.4  758-47.45Q 760.5999999999999-44.5  761.8499999999999-40.55Q 763.0999999999999-36.6  763.0999999999999-32.1ZM 811.6999999999999-51.8L 807.3-39.8Q 805.3-40.3  803.3499999999999-40.75Q 801.3999999999999-41.2  797.5999999999999-41.2L 797.5999999999999-41.2Q 796.1999999999999-41.2  794.4999999999999-40.95Q 792.8-40.7  791.6999999999999-40.4L 791.6999999999999-40.4L 781.9999999999999 0L 767.0999999999999 0L 779.0999999999999-49.8Q 783.3999999999999-51.2  788.7499999999999-52.45Q 794.0999999999999-53.7  800.8-53.7L 800.8-53.7Q 803.3-53.7  806.3499999999999-53.25Q 809.3999999999999-52.8  811.6999999999999-51.8L 811.6999999999999-51.8ZM 863.8999999999999-49.9L 857.3999999999999-22.7Q 855.9999999999999-17  856.5999999999999-11.25Q 857.1999999999999-5.5  858.8999999999999-1L 858.8999999999999-1L 845.5999999999999 0.9Q 844.9999999999999-0.3  844.4999999999999-1.4Q 843.9999999999999-2.5  843.4999999999999-3.9L 843.4999999999999-3.9Q 840.6999999999999-1.6  837.3-0.1Q 833.8999999999999 1.4  829.6999999999999 1.4L 829.6999999999999 1.4Q 824.6999999999999 1.4  821.1499999999999-0.35Q 817.5999999999999-2.1  815.3499999999999-5.05Q 813.0999999999999-8  812.0999999999999-11.95Q 811.0999999999999-15.9  811.0999999999999-20.4L 811.0999999999999-20.4Q 811.0999999999999-27.3  813.55-33.4Q 815.9999999999999-39.5  820.3499999999999-44.05Q 824.6999999999999-48.6  830.5999999999999-51.2Q 836.4999999999999-53.8  843.3999999999999-53.8L 843.3999999999999-53.8Q 844.3-53.8  846.55-53.7Q 848.8-53.6  851.6999999999999-53.25Q 854.5999999999999-52.9  857.8-52.1Q 860.9999999999999-51.3  863.8999999999999-49.9L 863.8999999999999-49.9ZM 843.0999999999999-25.3L 846.9999999999999-41.1Q 845.6999999999999-41.3  844.6499999999999-41.4Q 843.5999999999999-41.5  842.0999999999999-41.5L 842.0999999999999-41.5Q 838.6999999999999-41.5  835.7499999999999-39.8Q 832.8-38.1  830.5999999999999-35.35Q 828.3999999999999-32.6  827.1499999999999-29Q 825.8999999999999-25.4  825.8999999999999-21.5L 825.8999999999999-21.5Q 825.8999999999999-16.7  827.4999999999999-13.9Q 829.0999999999999-11.1  833.3999999999999-11.1L 833.3999999999999-11.1Q 835.6999999999999-11.1  837.55-12Q 839.3999999999999-12.9  841.4999999999999-15L 841.4999999999999-15Q 841.6999999999999-17.5  842.1499999999999-20.25Q 842.5999999999999-23  843.0999999999999-25.3L 843.0999999999999-25.3ZM 869.8999999999999-21L 869.8999999999999-21Q 869.8999999999999-27.8  872.0999999999999-33.8Q 874.2999999999998-39.8  878.3999999999999-44.3Q 882.4999999999999-48.8  888.3499999999999-51.4Q 894.1999999999998-54  901.3999999999999-54L 901.3999999999999-54Q 905.8999999999999-54  909.4499999999998-53.15Q 912.9999999999999-52.3  915.8999999999999-50.9L 915.8999999999999-50.9L 910.7999999999998-39.3Q 908.7999999999998-40.1  906.6499999999999-40.75Q 904.4999999999999-41.4  901.3999999999999-41.4L 901.3999999999999-41.4Q 893.8999999999999-41.4  889.5999999999999-36.35Q 885.2999999999998-31.3  885.2999999999998-22.6L 885.2999999999998-22.6Q 885.2999999999998-17.5  887.4999999999999-14.35Q 889.6999999999998-11.2  895.5999999999999-11.2L 895.5999999999999-11.2Q 898.4999999999999-11.2  901.1999999999998-11.8Q 903.8999999999999-12.4  905.9999999999999-13.3L 905.9999999999999-13.3L 907.0999999999999-1.4Q 904.2999999999998-0.3  900.9499999999998 0.55Q 897.5999999999999 1.4  892.7999999999998 1.4L 892.7999999999998 1.4Q 886.5999999999999 1.4  882.2999999999998-0.4Q 877.9999999999999-2.2  875.1999999999998-5.25Q 872.3999999999999-8.3  871.1499999999999-12.4Q 869.8999999999999-16.5  869.8999999999999-21ZM 919.3999999999999-24.3L 929.1999999999998-65.7L 944.6999999999998-68.1L 940.8999999999999-52.6L 957.4999999999999-52.6L 954.4999999999999-40.4L 937.9999999999999-40.4L 933.5999999999999-22Q 932.9999999999999-19.7  932.8499999999999-17.7Q 932.6999999999998-15.7  933.3499999999999-14.25Q 933.9999999999999-12.8  935.5999999999999-12Q 937.1999999999998-11.2  939.9999999999999-11.2L 939.9999999999999-11.2Q 942.3999999999999-11.2  944.6499999999999-11.65Q 946.8999999999999-12.1  949.1999999999998-12.9L 949.1999999999998-12.9L 950.2999999999998-1.5Q 947.2999999999998-0.4  943.7999999999998 0.4Q 940.2999999999998 1.2  935.4999999999999 1.2L 935.4999999999999 1.2Q 928.5999999999999 1.2  924.7999999999998-0.85Q 920.9999999999999-2.9  919.3999999999999-6.45Q 917.7999999999998-10  917.9999999999999-14.6Q 918.1999999999998-19.2  919.3999999999999-24.3L 919.3999999999999-24.3ZM 983.8999999999999-52.6L 971.2999999999998 0L 956.4999999999999 0L 968.9999999999999-52.6L 983.8999999999999-52.6ZM 978.4999999999999-59L 978.4999999999999-59Q 975.3999999999999-59  972.8999999999999-60.85Q 970.3999999999999-62.7  970.3999999999999-66.5L 970.3999999999999-66.5Q 970.3999999999999-68.6  971.2499999999999-70.45Q 972.0999999999999-72.3  973.4999999999999-73.65Q 974.8999999999999-75  976.7499999999999-75.8Q 978.5999999999999-76.6  980.6999999999999-76.6L 980.6999999999999-76.6Q 983.7999999999998-76.6  986.2999999999998-74.75Q 988.7999999999998-72.9  988.7999999999998-69.1L 988.7999999999998-69.1Q 988.7999999999998-67  987.9499999999999-65.15Q 987.0999999999999-63.3  985.6999999999999-61.95Q 984.2999999999998-60.6  982.4499999999999-59.8Q 980.5999999999999-59  978.4999999999999-59ZM 987.7999999999998-21L 987.7999999999998-21Q 987.7999999999998-27.8  989.9999999999999-33.8Q 992.1999999999998-39.8  996.2999999999998-44.3Q 1000.3999999999999-48.8  1006.2499999999999-51.4Q 1012.0999999999998-54  1019.2999999999998-54L 1019.2999999999998-54Q 1023.7999999999998-54  1027.35-53.15Q 1030.8999999999999-52.3  1033.7999999999997-50.9L 1033.7999999999997-50.9L 1028.6999999999998-39.3Q 1026.6999999999998-40.1  1024.5499999999997-40.75Q 1022.3999999999999-41.4  1019.2999999999998-41.4L 1019.2999999999998-41.4Q 1011.7999999999998-41.4  1007.4999999999999-36.35Q 1003.1999999999998-31.3  1003.1999999999998-22.6L 1003.1999999999998-22.6Q 1003.1999999999998-17.5  1005.3999999999999-14.35Q 1007.5999999999998-11.2  1013.4999999999999-11.2L 1013.4999999999999-11.2Q 1016.3999999999999-11.2  1019.0999999999998-11.8Q 1021.7999999999998-12.4  1023.8999999999999-13.3L 1023.8999999999999-13.3L 1024.9999999999998-1.4Q 1022.1999999999998-0.3  1018.8499999999998 0.55Q 1015.4999999999999 1.4  1010.6999999999998 1.4L 1010.6999999999998 1.4Q 1004.4999999999999 1.4  1000.1999999999998-0.4Q 995.8999999999999-2.2  993.0999999999998-5.25Q 990.2999999999998-8.3  989.0499999999998-12.4Q 987.7999999999998-16.5  987.7999999999998-21Z"></path><path id="_KnWXmQlYNts2OrXgOFbyD" fill="#7e7e7e" transform="matrix(0.35985602582342074, 0, 0, 0.35985602582342074, 117.55390437240158, 287.40740718139295)" text="Clinic" text-anchor="start" font-size="100" letter-spacing="0" side="left" offset="0" dx="0" dy="0" space="preserve" href="" font-family="Ubuntu" font-scale="contain" x="0" y="0" data-fl-textpath="" font-weight="700" font-style="italic" data-uid="o_f59g1f7el_10" d="M 59.7-15.7L 61.4-3Q 57.3-1  52.3 0.2Q 47.3 1.4  40.1 1.4L 40.1 1.4Q 33.9 1.4  28.75-0.65Q 23.6-2.7  19.95-6.5Q 16.3-10.3  14.3-15.75Q 12.3-21.2  12.3-28L 12.3-28Q 12.3-35.8  15.05-43.5Q 17.8-51.2  23.15-57.25Q 28.5-63.3  36.25-67.1Q 44-70.9  54.1-70.9L 54.1-70.9Q 58.9-70.9  63.55-69.8Q 68.2-68.7  73.3-65.9L 73.3-65.9L 67.7-53.8Q 63.5-56  60.2-56.8Q 56.9-57.6  53.1-57.6L 53.1-57.6Q 47.4-57.6  42.85-55.3Q 38.3-53  35.05-49.05Q 31.8-45.1  30.1-39.9Q 28.4-34.7  28.4-28.9L 28.4-28.9Q 28.4-20.1  32.25-16.1Q 36.1-12.1  43.3-12.1L 43.3-12.1Q 48.1-12.1  52.15-13.1Q 56.2-14.1  59.7-15.7L 59.7-15.7ZM 94.60000000000001-11.3L 91.60000000000001 1Q 84.50000000000001 1  80.45000000000002-0.85Q 76.4-2.7  74.65-5.9Q 72.9-9.1  72.95000000000002-13.25Q 73.00000000000001-17.4  74.10000000000001-22.1L 74.10000000000001-22.1L 86.80000000000001-75.2L 102.30000000000001-77.6L 88.4-20Q 88.00000000000001-18.2  87.95000000000002-16.7Q 87.9-15.2  88.50000000000001-14.05Q 89.10000000000001-12.9  90.55000000000001-12.2Q 92.00000000000001-11.5  94.60000000000001-11.3L 94.60000000000001-11.3ZM 128.70000000000002-52.6L 116.10000000000001 0L 101.30000000000001 0L 113.80000000000001-52.6L 128.70000000000002-52.6ZM 123.30000000000001-59L 123.30000000000001-59Q 120.20000000000002-59  117.70000000000002-60.85Q 115.20000000000002-62.7  115.20000000000002-66.5L 115.20000000000002-66.5Q 115.20000000000002-68.6  116.05000000000001-70.45Q 116.9-72.3  118.30000000000001-73.65Q 119.70000000000002-75  121.55000000000001-75.8Q 123.4-76.6  125.50000000000001-76.6L 125.50000000000001-76.6Q 128.60000000000002-76.6  131.10000000000002-74.75Q 133.60000000000002-72.9  133.60000000000002-69.1L 133.60000000000002-69.1Q 133.60000000000002-67  132.75-65.15Q 131.9-63.3  130.5-61.95Q 129.10000000000002-60.6  127.25000000000001-59.8Q 125.4-59  123.30000000000001-59ZM 129.60000000000002 0L 141.70000000000002-50.2Q 143.40000000000003-50.7  145.45000000000002-51.35Q 147.50000000000003-52  150.05-52.55Q 152.60000000000002-53.1  155.75000000000003-53.45Q 158.90000000000003-53.8  162.90000000000003-53.8L 162.90000000000003-53.8Q 174.70000000000002-53.8  179.10000000000002-47Q 183.50000000000003-40.2  180.60000000000002-28.4L 180.60000000000002-28.4L 173.8 0L 158.90000000000003 0L 165.50000000000003-27.8Q 166.10000000000002-30.4  166.45000000000002-32.85Q 166.8-35.3  166.40000000000003-37.15Q 166.00000000000003-39  164.55-40.15Q 163.10000000000002-41.3  160.10000000000002-41.3L 160.10000000000002-41.3Q 157.20000000000002-41.3  154.20000000000002-40.7L 154.20000000000002-40.7L 144.50000000000003 0L 129.60000000000002 0ZM 213.70000000000002-52.6L 201.10000000000002 0L 186.3 0L 198.8-52.6L 213.70000000000002-52.6ZM 208.3-59L 208.3-59Q 205.20000000000002-59  202.70000000000002-60.85Q 200.20000000000002-62.7  200.20000000000002-66.5L 200.20000000000002-66.5Q 200.20000000000002-68.6  201.05-70.45Q 201.9-72.3  203.3-73.65Q 204.70000000000002-75  206.55-75.8Q 208.4-76.6  210.5-76.6L 210.5-76.6Q 213.60000000000002-76.6  216.10000000000002-74.75Q 218.60000000000002-72.9  218.60000000000002-69.1L 218.60000000000002-69.1Q 218.60000000000002-67  217.75-65.15Q 216.9-63.3  215.5-61.95Q 214.10000000000002-60.6  212.25-59.8Q 210.4-59  208.3-59ZM 217.60000000000002-21L 217.60000000000002-21Q 217.60000000000002-27.8  219.8-33.8Q 222.00000000000003-39.8  226.10000000000002-44.3Q 230.20000000000002-48.8  236.05-51.4Q 241.90000000000003-54  249.10000000000002-54L 249.10000000000002-54Q 253.60000000000002-54  257.15000000000003-53.15Q 260.70000000000005-52.3  263.6-50.9L 263.6-50.9L 258.5-39.3Q 256.5-40.1  254.35000000000002-40.75Q 252.20000000000002-41.4  249.10000000000002-41.4L 249.10000000000002-41.4Q 241.60000000000002-41.4  237.3-36.35Q 233.00000000000003-31.3  233.00000000000003-22.6L 233.00000000000003-22.6Q 233.00000000000003-17.5  235.20000000000002-14.35Q 237.40000000000003-11.2  243.3-11.2L 243.3-11.2Q 246.20000000000002-11.2  248.90000000000003-11.8Q 251.60000000000002-12.4  253.70000000000002-13.3L 253.70000000000002-13.3L 254.8-1.4Q 252.00000000000003-0.3  248.65000000000003 0.55Q 245.3 1.4  240.50000000000003 1.4L 240.50000000000003 1.4Q 234.3 1.4  230.00000000000003-0.4Q 225.70000000000002-2.2  222.90000000000003-5.25Q 220.10000000000002-8.3  218.85000000000002-12.4Q 217.60000000000002-16.5  217.60000000000002-21Z"></path></g></svg>